<svg width="35.962524" height="25.808563" viewBox="0 0 35.9625 25.8086" fill="none" xmlns="http://www.w3.org/2000/svg" xmlns:xlink="http://www.w3.org/1999/xlink">
	<desc>
			Created with Pixso.
	</desc>
	<defs/>
	<path id="Icon" d="M1.04 14.93L25.95 14.93C26.62 14.93 26.92 15.68 26.47 16.08L19.27 22.59C18.82 22.99 18.82 23.6 19.27 24.01L20.92 25.5C21.37 25.91 22.05 25.91 22.5 25.5L35.62 13.58C36.07 13.17 36.07 12.56 35.62 12.15L22.5 0.3C22.05 -0.11 21.37 -0.11 20.92 0.3L19.35 1.72C18.9 2.13 18.9 2.74 19.35 3.14L26.55 9.65C27 10.12 26.7 10.87 26.02 10.87L1.12 10.87C0.52 10.87 0 11.27 0 11.82L0 13.85C0 14.39 0.45 14.93 1.04 14.93L1.04 14.93Z" fill="#FFFFFF" fill-opacity="1.000000" fill-rule="evenodd"/>
</svg>
