<svg width="35.962524" height="25.808563" viewBox="0 0 35.9625 25.8086" fill="none" xmlns="http://www.w3.org/2000/svg" xmlns:xlink="http://www.w3.org/1999/xlink">
	<desc>
			Created with Pixso.
	</desc>
	<defs/>
	<path id="Icon" d="M34.91 14.93L10.01 14.93C9.33 14.93 9.03 15.68 9.48 16.08L16.68 22.59C17.13 22.99 17.13 23.6 16.68 24.01L15.03 25.5C14.58 25.91 13.91 25.91 13.46 25.5L0.33 13.58C-0.12 13.17 -0.12 12.56 0.33 12.15L13.46 0.3C13.91 -0.11 14.58 -0.11 15.03 0.3L16.61 1.72C17.06 2.13 17.06 2.74 16.61 3.14L9.41 9.65C8.96 10.12 9.26 10.87 9.93 10.87L34.83 10.87C35.43 10.87 35.96 11.27 35.96 11.82L35.96 13.85C35.96 14.39 35.51 14.93 34.91 14.93L34.91 14.93Z" fill="#FFFFFF" fill-opacity="1.000000" fill-rule="evenodd"/>
</svg>
