<svg width="46.041748" height="38.116302" viewBox="0 0 46.0417 38.1163" fill="none" xmlns="http://www.w3.org/2000/svg" xmlns:xlink="http://www.w3.org/1999/xlink">
	<desc>
			Created with Pixso.
	</desc>
	<defs/>
	<path id="矢量 357" d="M0 24.5L10.83 24.5L10.83 13.61L0 13.61L0 24.5ZM0 38.11L10.83 38.11L10.83 27.22L0 27.22L0 38.11ZM0 10.89L10.83 10.89L10.83 0L0 0L0 10.89ZM13.54 24.5L46.04 24.5L46.04 13.61L13.54 13.61L13.54 24.5ZM13.54 38.11L46.04 38.11L46.04 27.22L13.54 27.22L13.54 38.11ZM13.54 0L13.54 10.89L46.04 10.89L46.04 0L13.54 0Z" fill="#FFFFFF" fill-opacity="1.000000" fill-rule="evenodd"/>
</svg>
